<?xml version="1.0" encoding="UTF-8"?>
<svg width="34px" height="30px" viewBox="0 0 34 30" version="1.1" xmlns="http://www.w3.org/2000/svg" xmlns:xlink="http://www.w3.org/1999/xlink">
    <!-- Generator: Sketch 52.1 (67048) - http://www.bohemiancoding.com/sketch -->
    <title>mdpi/icon_empty</title>
    <desc>Created with Sketch.</desc>
    <g id="首页" stroke="none" stroke-width="1" fill="none" fill-rule="evenodd">
        <g id="2.1搜索-暂无搜索内容" transform="translate(-171.000000, -195.000000)" fill="#D0D0D8">
            <g id="Group">
                <g id="bg">
                    <g id="icon_empty" transform="translate(171.000000, 195.000000)">
                        <path d="M3.18697574,29.7977654 L3.14735043,29.7969037 C2.91829256,29.7895795 1.72765471,29.7141831 0.934449527,28.9808996 C0.121147718,28.2287023 0.0240722656,27.1471737 0.0128880551,26.9378303 C0.0118051785,26.918145 0.0112807136,26.8984337 0.0113152755,26.8787196 L0.0113152755,20.9883243 C-0.000524259868,20.7456773 -0.0164268092,19.9259679 0.262086246,19.0156106 C0.528934519,18.1427361 0.8586066,17.5696806 0.953017064,17.4150534 L3.95173982,12.1833209 C3.96672492,12.157083 3.98258378,12.1317067 3.99957854,12.1070198 C4.09307155,11.9702292 4.59570569,11.2661133 5.28488898,10.8432474 C6.01007144,10.3978918 6.88781353,10.3634679 7.13967671,10.3634679 L26.08171,10.3634679 C26.1060881,10.3634679 26.1302041,10.3641573 26.1551064,10.3657083 C26.3434031,10.3775994 27.3211477,10.4589844 28.0778295,10.8858571 C28.8003469,11.2939453 29.3819259,12.0070657 29.491103,12.1456227 C29.5132616,12.1739999 29.5340794,12.2033711 29.5534899,12.2336426 L33.1150057,17.7990579 C33.1302092,17.8235725 33.1456312,17.8491642 33.1595241,17.8754021 C33.2277652,18.004653 33.5798057,18.6876149 33.7580978,19.3517923 C33.9341617,20.008904 33.9766267,20.7351218 33.9830926,20.8738511 L33.9840101,20.9212431 L33.9840101,26.8125 C33.9880294,27.1239947 33.9298802,28.192986 33.0306872,28.987319 C32.1791144,29.7390855 31.0327328,29.7972915 30.7016627,29.7972915 L3.18697574,29.7972915 L3.18697574,29.7977654 Z M2.8818565,18.608858 C2.81632401,18.7237621 2.61251799,19.103889 2.44117239,19.6639332 C2.26021536,20.2559886 2.28171001,20.8094411 2.28459344,20.8707491 C2.28619973,20.8972768 2.28717571,20.923838 2.28752056,20.9504107 L2.28752056,26.8399012 L2.28974866,26.8561868 C2.30385999,26.9620864 2.36939248,27.2186495 2.48237048,27.3344152 L2.49757401,27.3503562 L2.51548623,27.3633243 C2.67363795,27.4782715 3.0655222,27.5442325 3.20239772,27.5523753 L30.7034539,27.5528062 C30.9316381,27.5501781 31.3304687,27.4751695 31.5112073,27.3154584 C31.6728978,27.1725069 31.7091154,26.9272317 31.7091154,26.8879825 L31.706931,26.8198242 L31.706931,20.95571 C31.6946109,20.7269359 31.6496556,20.2709817 31.5565995,19.9255802 C31.4512233,19.5309341 31.2154811,19.0581773 31.1691715,18.9677447 L31.1564145,18.9456859 L27.6613487,13.483499 L27.6504266,13.4704877 C27.5179636,13.3131893 27.2003495,12.9770077 26.9466951,12.8336253 C26.7270302,12.7096737 26.2796618,12.6302706 26.0492496,12.6090734 L26.0253521,12.6079532 L7.14369603,12.6079532 C6.96697677,12.6095043 6.63865903,12.6556037 6.48697317,12.7491383 C6.27333727,12.8804142 6.02038189,13.1804056 5.91635999,13.3204705 L5.90740389,13.3326201 L2.92746711,18.5314367 L2.89526881,18.5848173 L2.89570569,18.5834817 C2.89483193,18.5861098 2.8818565,18.608858 2.8818565,18.608858 Z M16.8889443,8.71745749 C16.2606237,8.71684023 15.7513916,8.21475266 15.750645,7.59512868 L15.750645,1.1384421 C15.7513911,0.518986079 16.2603574,0.0169678895 16.8885074,0.0161132813 C17.5168635,0.0167303081 18.0261582,0.518783269 18.0270251,1.1384421 L18.0270251,7.59504251 C18.0263989,8.21463165 17.5172294,8.71675385 16.8889443,8.71737132 L16.8889443,8.71745749 Z M24.5197214,8.67489085 C23.8914338,8.6740362 23.3823626,8.17189535 23.3816406,7.55230354 C23.3818791,7.29488937 23.4716265,7.04534113 23.6359067,6.84530101 L26.2376336,3.68098001 C26.453629,3.41740906 26.7791216,3.26458352 27.122759,3.26539522 C27.3857627,3.26539522 27.6333882,3.3520795 27.8382864,3.51596967 C28.0736758,3.70276328 28.2232999,3.97482404 28.253675,4.27126896 C28.2860987,4.56736457 28.1969167,4.8639318 28.0060495,5.09472656 L25.40441,8.25909065 C25.1893103,8.52259127 24.8644886,8.67547912 24.521469,8.67467544 L24.5197214,8.67467544 L24.5197214,8.67489085 Z M9.38613024,8.58906824 C9.03973252,8.58999369 8.71203252,8.43422314 8.49698551,8.16641774 L5.93938374,5.00231216 C5.54821174,4.51736564 5.62897221,3.81166447 6.11990389,3.42489085 C6.32074923,3.2657276 6.57087111,3.17930537 6.82852847,3.18004653 C7.17746711,3.18004653 7.50202765,3.33419979 7.71924599,3.60291245 L10.2770662,6.76697495 C10.6683557,7.25173385 10.5878073,7.95738355 10.0970266,8.34422392 C9.89542433,8.50233973 9.64555123,8.58862281 9.38796515,8.58906824 L9.38613024,8.58906824 Z" id="Shape" fill-rule="nonzero"></path>
                        <path d="M16.9323705,25.1799747 C14.3967002,25.1799747 12.1935855,23.5035041 11.5753084,21.1037023 L11.52546,20.9102568 L1.41781713,20.9043112 C0.789483275,20.902959 0.280601269,20.4007157 0.279736328,19.7810777 C0.28072322,19.1617059 0.789752124,18.6599151 1.41781713,18.6591797 L12.5478978,18.6662023 C13.1758553,18.6677674 13.6843586,19.1696948 13.685367,19.788962 C13.685367,21.553237 15.1115723,22.9350155 16.9323705,22.9350155 C18.7466591,22.9350155 20.1679276,21.5532801 20.1679276,19.7890051 C20.1692723,19.1696332 20.6779443,18.6677898 21.3060084,18.6662023 L32.3330284,18.659352 C32.9608733,18.659352 33.4711092,19.162095 33.4715461,19.7808192 C33.4719829,20.3995433 32.9617907,20.9036219 32.334339,20.9045267 L22.3289705,20.9104722 L22.2790784,21.1039177 C21.6615003,23.5036765 19.4631039,25.1799747 16.9323705,25.1799747 Z" id="Path"></path>
                    </g>
                </g>
            </g>
        </g>
    </g>
</svg>