<?xml version="1.0" encoding="UTF-8"?>
<svg width="13px" height="13px" viewBox="0 0 13 13" version="1.1" xmlns="http://www.w3.org/2000/svg" xmlns:xlink="http://www.w3.org/1999/xlink">
    <!-- Generator: Sketch 52.1 (67048) - http://www.bohemiancoding.com/sketch -->
    <title>mdpi/icon_list_help</title>
    <desc>Created with Sketch.</desc>
    <g id="我的页面" stroke="none" stroke-width="1" fill="none" fill-rule="evenodd">
        <g id="0.0.1图标_我的页面" transform="translate(-72.000000, -271.000000)">
            <g id="1-copy-3" transform="translate(57.000000, 252.000000)">
                <rect id="Rectangle" fill-rule="nonzero" x="0" y="0" width="375" height="50"></rect>
                <g id="icon_list_help" opacity="0.800000012" transform="translate(15.000000, 19.000000)">
                    <circle id="Oval" stroke="#FFFFFF" stroke-width="0.888888889" fill-rule="nonzero" cx="6.5" cy="6.5" r="6.05555556"></circle>
                    <path d="M6.62311111,2.2 C7.36266667,2.2 7.952,2.39644444 8.40266667,2.81244444 C8.83022222,3.20533333 9.04977778,3.74844444 9.04977778,4.44177778 C9.04977778,4.96177778 8.89955556,5.41244444 8.61066667,5.79377778 C8.49511111,5.93244444 8.18311111,6.23288889 7.67466667,6.68355556 C7.42044444,6.90311111 7.24711111,7.11111111 7.13155556,7.31911111 C6.98133333,7.57333333 6.912,7.85066667 6.912,8.16266667 L6.912,8.42844444 L5.98755556,8.42844444 L5.98755556,8.16266667 C5.98755556,7.78133333 6.05688889,7.44622222 6.19555556,7.15733333 C6.35733333,6.81066667 6.73866667,6.37155556 7.36266667,5.81688889 C7.54755556,5.632 7.68622222,5.49333333 7.75555556,5.40088889 C7.98666667,5.112 8.10222222,4.81155556 8.10222222,4.488 C8.10222222,4.02577778 7.96355556,3.66755556 7.70933333,3.41333333 C7.44355556,3.136 7.06222222,3.00888889 6.57688889,3.00888889 C5.99911111,3.00888889 5.57155556,3.19377778 5.29422222,3.57511111 C5.04,3.89866667 4.91288889,4.33777778 4.91288889,4.904 L4,4.904 C4,4.09511111 4.21955556,3.448 4.68177778,2.96266667 C5.144,2.45422222 5.79111111,2.2 6.62311111,2.2 Z M6.44977778,9.23733333 C6.64622222,9.23733333 6.81955556,9.29511111 6.95822222,9.43377778 C7.08533333,9.56088889 7.15466667,9.72266667 7.15466667,9.91911111 C7.15466667,10.1271111 7.08533333,10.2888889 6.94666667,10.416 C6.808,10.5431111 6.64622222,10.6124444 6.44977778,10.6124444 C6.25333333,10.6124444 6.09155556,10.5431111 5.95288889,10.416 C5.81422222,10.2773333 5.75644444,10.1155556 5.75644444,9.91911111 C5.75644444,9.72266667 5.81422222,9.56088889 5.95288889,9.43377778 C6.09155556,9.29511111 6.25333333,9.23733333 6.44977778,9.23733333 Z" id="？" fill="#FFFFFF"></path>
                </g>
            </g>
        </g>
    </g>
</svg>