<?xml version="1.0" encoding="UTF-8"?>
<svg width="20px" height="20px" viewBox="0 0 20 20" version="1.1" xmlns="http://www.w3.org/2000/svg" xmlns:xlink="http://www.w3.org/1999/xlink">
    <!-- Generator: Sketch 52.1 (67048) - http://www.bohemiancoding.com/sketch -->
    <title>mdpi/icon_call</title>
    <desc>Created with Sketch.</desc>
    <g id="酒吧详情" stroke="none" stroke-width="1" fill="none" fill-rule="evenodd">
        <g id="0.0.1图标" transform="translate(-101.000000, -131.000000)" fill="#456AEC" fill-rule="nonzero">
            <g id="Group-28" transform="translate(65.000000, 131.000000)">
                <g id="Group-23" transform="translate(36.000000, 0.000000)">
                    <g id="Group-18">
                        <path d="M5.27061683,7.91262716 C6.47501784,11.1163911 9.02455104,13.6384934 12.2123977,14.7565809 C12.7064161,13.0851852 14.2248883,11.8681319 16.0215054,11.8681319 C18.2187673,11.8681319 20,13.6885126 20,15.9340659 C20,18.1796193 18.2187673,20 16.0215054,20 C15.9855497,20 15.9497054,19.9995125 15.9139785,19.9985438 L15.9139785,20 C7.34060493,20 0.350678814,13.0714546 0.0127903631,4.39435147 C0.00431776485,4.28602064 0,4.17649267 0,4.06593407 C0,4.02920157 0.000476622806,3.99258284 0.00142389286,3.95608398 C0.000475623749,3.88292613 0,3.8096517 0,3.73626374 L0.0128885445,3.73626374 C0.177088539,1.64488544 1.8898308,0 3.97849462,0 C6.17575653,0 7.95698925,1.82038069 7.95698925,4.06593407 C7.95698925,5.84924098 6.83361081,7.36440223 5.27061683,7.91262716 Z" id="icon_call"></path>
                    </g>
                </g>
            </g>
        </g>
    </g>
</svg>