<?xml version="1.0" encoding="UTF-8"?>
<svg width="48px" height="48px" viewBox="0 0 48 48" version="1.1" xmlns="http://www.w3.org/2000/svg" xmlns:xlink="http://www.w3.org/1999/xlink">
    <!-- Generator: Sketch 52.1 (67048) - http://www.bohemiancoding.com/sketch -->
    <title>mdpi/icon_huodongdang</title>
    <desc>Created with Sketch.</desc>
    <defs>
        <linearGradient x1="100%" y1="20.4578286%" x2="0%" y2="94.6940207%" id="linearGradient-1">
            <stop stop-color="#C60087" stop-opacity="0.2" offset="0%"></stop>
            <stop stop-color="#0B66CD" stop-opacity="0.483106033" offset="94.3686777%"></stop>
            <stop stop-color="#006CD1" stop-opacity="0.5" offset="100%"></stop>
        </linearGradient>
        <filter x="-57.1%" y="-50.0%" width="214.3%" height="200.0%" filterUnits="objectBoundingBox" id="filter-2">
            <feOffset dx="0" dy="2" in="SourceAlpha" result="shadowOffsetOuter1"></feOffset>
            <feGaussianBlur stdDeviation="2" in="shadowOffsetOuter1" result="shadowBlurOuter1"></feGaussianBlur>
            <feColorMatrix values="0 0 0 0 0.0862745098   0 0 0 0 0.0823529412   0 0 0 0 0.28627451  0 0 0 1 0" type="matrix" in="shadowBlurOuter1" result="shadowMatrixOuter1"></feColorMatrix>
            <feMerge>
                <feMergeNode in="shadowMatrixOuter1"></feMergeNode>
                <feMergeNode in="SourceGraphic"></feMergeNode>
            </feMerge>
        </filter>
        <linearGradient x1="71.5148814%" y1="0%" x2="0%" y2="163.080762%" id="linearGradient-3">
            <stop stop-color="#FF26BA" offset="0%"></stop>
            <stop stop-color="#0084FF" offset="100%"></stop>
        </linearGradient>
    </defs>
    <g id="我的页面" stroke="none" stroke-width="1" fill="none" fill-rule="evenodd">
        <g id="0.0.1图标_我的页面" transform="translate(-196.000000, -33.000000)" fill-rule="nonzero">
            <g id="1-copy-2" transform="translate(34.000000, 16.000000)">
                <g id="Group-7" transform="translate(162.000000, 17.000000)">
                    <g id="icon_huodongdang">
                        <circle id="Oval-Copy" fill="url(#linearGradient-1)" cx="24" cy="24" r="24"></circle>
                        <g id="Group-Copy" filter="url(#filter-2)" transform="translate(14.000000, 12.000000)">
                            <path d="M1.09565217,-9.13632993e-05 L19.9043833,-9.33659984e-05 C20.5094952,-9.33659984e-05 21.0000354,0.490446821 21.0000354,1.09555881 C21.0000354,1.09555948 21.0000354,1.09556014 21.0000354,1.09556081 L21.0000014,18.6370633 C21.0000005,19.0879555 20.7237728,19.492808 20.3039362,19.6572495 L10.5,23.4972527 L0.696065132,19.65725 C0.27622785,19.4928082 3.46652234e-16,19.0879548 -1.11022302e-15,18.6370618 L-1.77635684e-15,1.09556081 C-1.85046169e-15,0.490448824 0.490540187,-9.13632993e-05 1.09565217,-9.13632993e-05 Z" id="Rectangle" fill="url(#linearGradient-3)"></path>
                            <path d="M5.47826087,7.84615385 L15.5217391,7.84615385" id="Path-36" stroke="#FFFFFF" stroke-linecap="round"></path>
                            <path d="M5.47826087,13.3846154 L13.6956522,13.3846154" id="Path-36-Copy" stroke="#FFFFFF" stroke-linecap="round"></path>
                        </g>
                    </g>
                </g>
            </g>
        </g>
    </g>
</svg>