<?xml version="1.0" encoding="UTF-8"?>
<svg width="15px" height="14px" viewBox="0 0 15 14" version="1.1" xmlns="http://www.w3.org/2000/svg" xmlns:xlink="http://www.w3.org/1999/xlink">
    <!-- Generator: Sketch 52.1 (67048) - http://www.bohemiancoding.com/sketch -->
    <title>mdpi/icon_title_gushi</title>
    <desc>Created with Sketch.</desc>
    <g id="酒吧详情" stroke="none" stroke-width="1" fill="none" fill-rule="evenodd">
        <g id="0.0.1图标" transform="translate(-50.000000, -303.000000)" fill-rule="nonzero" stroke="#FFFFFF" stroke-width="0.8">
            <g id="Group-20" transform="translate(51.000000, 300.000000)">
                <g id="icon_title_gushi" transform="translate(0.000000, 4.000000)">
                    <path d="M11.4705882,6.66883393 L11.4705882,11.6857185 C11.4705882,12.1018635 11.0825684,12.4392157 10.6039216,12.4392157 L2.39607843,12.4392157 C1.91743165,12.4392157 1.52941176,12.1018635 1.52941176,11.6857185 L1.52941176,6.66883393" id="Rectangle"></path>
                    <path d="M4.58823529,12.2352941 L4.58823529,10.3235294 C4.58823529,9.26769092 5.44416151,8.41176471 6.5,8.41176471 C7.55583849,8.41176471 8.41176471,9.26769092 8.41176471,10.3235294 L8.41176471,12.2352941" id="Rectangle"></path>
                    <path d="M9.66790759,5.58942336 C9.31837622,6.04344381 8.76942451,6.33599921 8.15214283,6.33599921 L8.01567274,6.33599921 C7.39839106,6.33599921 6.84943935,6.04344381 6.49990798,5.58942336 C6.15037661,6.04344381 5.60142491,6.33599921 4.98414323,6.33599921 L4.84767313,6.33599921 C4.23039145,6.33599921 3.68143975,6.04344381 3.33190838,5.58942336 C2.98237701,6.04344381 2.4334253,6.33599921 1.81614362,6.33599921 L1.74790858,6.33599921 C0.890533674,6.33599921 0.195493989,5.64095953 0.195493989,4.78358463 C0.195493989,4.65876431 0.210547868,4.53439953 0.24032954,4.41318417 L1.32461461,0 L2.93590843,0 L6.10390803,0 L10.0639075,0 L11.6752014,0 L12.7594864,4.41318417 C12.964053,5.24579708 12.4549208,6.08659714 11.6223078,6.29116366 C11.5010925,6.32094533 11.3767277,6.33599921 11.2519074,6.33599921 L11.1836723,6.33599921 C10.5663907,6.33599921 10.017439,6.04344381 9.66790759,5.58942336 Z" id="Combined-Shape"></path>
                </g>
            </g>
        </g>
    </g>
</svg>