<?xml version="1.0" encoding="UTF-8"?>
<svg width="14px" height="14px" viewBox="0 0 14 14" version="1.1" xmlns="http://www.w3.org/2000/svg" xmlns:xlink="http://www.w3.org/1999/xlink">
    <!-- Generator: Sketch 52.1 (67048) - http://www.bohemiancoding.com/sketch -->
    <title>mdpi/icon_search_delete</title>
    <desc>Created with Sketch.</desc>
    <g id="首页" stroke="none" stroke-width="1" fill="none" fill-rule="evenodd" opacity="0.200000003">
        <g id="0.0.1图标" transform="translate(-276.000000, -50.000000)" fill="#FFFFFF" fill-rule="nonzero">
            <g id="搜索" transform="translate(238.000000, 49.000000)">
                <path d="M45,15 C41.1340068,15 38,11.8659932 38,8 C38,4.13400675 41.1340068,1 45,1 C48.8659932,1 52,4.13400675 52,8 C52,11.8659932 48.8659932,15 45,15 Z M45.0179583,7.47921024 L42.7103209,5.17157288 C42.5615497,5.02280172 42.320344,5.02280172 42.1715729,5.17157288 C42.0228017,5.32034403 42.0228017,5.56154974 42.1715729,5.7103209 L44.4792102,8.01795827 L42.1715729,10.3255956 C42.0327198,10.4644487 42.0327198,10.689574 42.1715729,10.8284271 C42.310426,10.9672802 42.5355513,10.9672802 42.6744044,10.8284271 L44.9820417,8.52078976 L47.2896791,10.8284271 C47.4384503,10.9771983 47.679656,10.9771983 47.8284271,10.8284271 C47.9771983,10.679656 47.9771983,10.4384503 47.8284271,10.2896791 L45.5207898,7.98204173 L47.8284271,5.67440436 C47.9672802,5.53555128 47.9672802,5.31042596 47.8284271,5.17157288 C47.689574,5.03271979 47.4644487,5.03271979 47.3255956,5.17157288 L45.0179583,7.47921024 Z" id="icon_search_delete"></path>
            </g>
        </g>
    </g>
</svg>