<?xml version="1.0" encoding="UTF-8"?>
<svg width="17px" height="17px" viewBox="0 0 17 17" version="1.1" xmlns="http://www.w3.org/2000/svg" xmlns:xlink="http://www.w3.org/1999/xlink">
    <!-- Generator: Sketch 52.1 (67048) - http://www.bohemiancoding.com/sketch -->
    <title>mdpi/icon_title_fujinjiuba</title>
    <desc>Created with Sketch.</desc>
    <g id="首页" stroke="none" stroke-width="1" fill="none" fill-rule="evenodd">
        <g id="0.0.1图标" transform="translate(-100.000000, -49.000000)" fill-rule="nonzero">
            <g id="Group-8" transform="translate(100.000000, 49.000000)">
                <g id="icon_title_fujinjiuba" transform="translate(1.000000, 1.000000)">
                    <path d="M4.92867558,14.2590637 L1.21880959,13.4839582 C0.809880063,13.3985202 0.516910872,13.0380146 0.516910872,12.6202551 L0.516910872,3.83483088 C0.516910872,3.34752081 0.91195374,2.95247794 1.39926381,2.95247794 C1.45989623,2.95247794 1.52036718,2.95872759 1.57971803,2.97112781 L4.92867558,3.67082838" id="Rectangle" stroke="#FFFFFF"></path>
                    <path d="M10.0842438,2.5408223 L13.7941098,3.31592778 C14.2030393,3.40136578 14.4960085,3.76187134 14.4960085,4.17963085 L14.4960085,12.9650551 C14.4960085,13.4523652 14.1009656,13.847408 13.6136556,13.847408 C13.5530231,13.847408 13.4925522,13.8411584 13.4332013,13.8287582 L10.0842438,13.1290576" id="Rectangle" stroke="#FFFFFF"></path>
                    <polygon id="Rectangle" stroke="#FFFFFF" transform="translate(7.500000, 8.402053) scale(-1, 1) translate(-7.500000, -8.402053) " points="5.29411765 2.64705882 9.70588235 3.5688126 9.70588235 14.1570479 5.29411765 13.2352941"></polygon>
                    <g id="Group-15" transform="translate(7.941176, 0.000000)">
                        <path d="M3.27670078,5.97827849 C4.62164536,4.60831226 5.29411765,3.49790571 5.29411765,2.64705882 C5.29411765,1.1851286 4.10898904,3.99680289e-15 2.64705882,3.99680289e-15 C1.1851286,3.99680289e-15 -8.8817842e-16,1.1851286 -8.8817842e-16,2.64705882 C-8.8817842e-16,3.49789766 0.672459565,4.60829125 2.01737869,5.97823961 L2.01734097,5.97827664 C2.35875038,6.32603975 2.91743509,6.33119045 3.2651982,5.98978104 C3.26906765,5.98598228 3.27290201,5.98214794 3.27670078,5.97827849 Z" id="Oval" stroke="#FFFFFF" fill="#171535"></path>
                        <circle id="Oval" fill="#FFFFFF" cx="2.64705882" cy="2.64705882" r="1"></circle>
                    </g>
                </g>
            </g>
        </g>
    </g>
</svg>