<?xml version="1.0" encoding="UTF-8"?>
<svg width="17px" height="17px" viewBox="0 0 17 17" version="1.1" xmlns="http://www.w3.org/2000/svg" xmlns:xlink="http://www.w3.org/1999/xlink">
    <!-- Generator: Sketch 52.1 (67048) - http://www.bohemiancoding.com/sketch -->
    <title>mdpi/icon_title_renqijiuba</title>
    <desc>Created with Sketch.</desc>
    <g id="首页" stroke="none" stroke-width="1" fill="none" fill-rule="evenodd">
        <g id="0.0.1图标" transform="translate(-70.000000, -50.000000)" fill-rule="nonzero" stroke="#FFFFFF">
            <g id="Group-7" transform="translate(70.000000, 50.000000)">
                <g id="Group-8">
                    <g id="icon_title_renqijiuba" transform="translate(0.000000, 1.000000)">
                        <path d="M10.5114022,5.84115187 L12.3465808,3.74925505 C12.5179774,3.55388223 12.4985409,3.25655685 12.3031681,3.08516024 C12.2173236,3.00985064 12.1070234,2.96832579 11.992827,2.96832579 L9.13188401,2.96832579 C9.26203901,1.30782137 10.6842033,-2.57571742e-14 12.4194373,-2.57571742e-14 C14.2404667,-2.57571742e-14 15.7167027,1.44034397 15.7167027,3.2170983 C15.7167027,4.99385262 14.2404667,6.43419659 12.4194373,6.43419659 C11.7084105,6.43419659 11.0499486,6.21461074 10.5114022,5.84115187 Z" id="Combined-Shape"></path>
                        <path d="M0.685093391,3.74925505 L6.5158371,10.3956457 L12.3465808,3.74925505 C12.5179774,3.55388223 12.4985409,3.25655685 12.3031681,3.08516024 C12.2173236,3.00985064 12.1070234,2.96832579 11.992827,2.96832579 L1.03884718,2.96832579 C0.77894847,2.96832579 0.56825894,3.17901532 0.56825894,3.43891403 C0.56825894,3.55311039 0.609783786,3.66341058 0.685093391,3.74925505 Z" id="Path"></path>
                        <path d="M6.6353844,9.93682755 L6.6353844,14.7692308" id="Path-2"></path>
                        <path d="M3.19602725,6.80769067 L9.63916088,6.80769067" id="Path-3"></path>
                        <path d="M3.76470588,14.7692308 L9.56470588,14.7692308" id="Path-3-Copy" stroke-linecap="round"></path>
                    </g>
                </g>
            </g>
        </g>
    </g>
</svg>