<?xml version="1.0" encoding="UTF-8"?>
<svg width="13px" height="13px" viewBox="0 0 13 13" version="1.1" xmlns="http://www.w3.org/2000/svg" xmlns:xlink="http://www.w3.org/1999/xlink">
    <!-- Generator: Sketch 52.1 (67048) - http://www.bohemiancoding.com/sketch -->
    <title>mdpi/icon_list_us</title>
    <desc>Created with Sketch.</desc>
    <g id="我的页面" stroke="none" stroke-width="1" fill="none" fill-rule="evenodd">
        <g id="0.0.1图标_我的页面" transform="translate(-72.000000, -370.000000)">
            <g id="1-copy-5" transform="translate(57.000000, 352.000000)">
                <rect id="Rectangle" fill-rule="nonzero" x="0" y="0" width="375" height="50"></rect>
                <g id="icon_list_us" opacity="0.800000012" transform="translate(15.000000, 18.000000)">
                    <circle id="Oval" stroke="#FFFFFF" stroke-width="0.888888889" fill-rule="nonzero" cx="6.5" cy="6.5" r="6.05555556"></circle>
                    <path d="M6.16177778,2 L7.23644444,2 L7.05155556,8.032 L6.33511111,8.032 L6.16177778,2 Z M6.69333333,8.87555556 C6.88977778,8.87555556 7.06311111,8.93333333 7.20177778,9.072 C7.32888889,9.19911111 7.39822222,9.36088889 7.39822222,9.55733333 C7.39822222,9.76533333 7.32888889,9.92711111 7.20177778,10.0542222 C7.06311111,10.1813333 6.88977778,10.2506667 6.69333333,10.2506667 C6.49688889,10.2506667 6.33511111,10.1813333 6.19644444,10.0542222 C6.05777778,9.91555556 6,9.75377778 6,9.55733333 C6,9.36088889 6.05777778,9.19911111 6.19644444,9.072 C6.33511111,8.93333333 6.49688889,8.87555556 6.69333333,8.87555556 Z" id="！" fill="#FFFFFF"></path>
                </g>
            </g>
        </g>
    </g>
</svg>